<svg width="39" height="50" viewBox="0 0 39 50" fill="none" xmlns="http://www.w3.org/2000/svg">
<path d="M38.5 49.5H0.5V0.5H28.7929L38.5 10.2071V49.5Z" stroke="#3A3A3A"/>
<path d="M29 0.5V10H38" stroke="#3A3A3A"/>
<rect y="24" width="39" height="26" fill="#3A3A3A"/>
<path d="M7.912 32.432H11.464C12.12 32.432 12.688 32.544 13.168 32.768C13.648 32.992 14.04 33.3 14.344 33.692C14.648 34.076 14.872 34.528 15.016 35.048C15.168 35.568 15.244 36.124 15.244 36.716C15.244 37.308 15.168 37.864 15.016 38.384C14.872 38.904 14.648 39.36 14.344 39.752C14.04 40.136 13.648 40.44 13.168 40.664C12.688 40.888 12.12 41 11.464 41H7.912V32.432ZM9.412 39.776H10.888C11.472 39.776 11.948 39.7 12.316 39.548C12.692 39.388 12.984 39.172 13.192 38.9C13.408 38.62 13.552 38.296 13.624 37.928C13.704 37.552 13.744 37.148 13.744 36.716C13.744 36.284 13.704 35.884 13.624 35.516C13.552 35.14 13.408 34.816 13.192 34.544C12.984 34.264 12.692 34.048 12.316 33.896C11.948 33.736 11.472 33.656 10.888 33.656H9.412V39.776ZM19.7402 33.452C19.2842 33.452 18.8882 33.544 18.5522 33.728C18.2242 33.912 17.9562 34.16 17.7482 34.472C17.5402 34.776 17.3842 35.124 17.2802 35.516C17.1842 35.908 17.1362 36.308 17.1362 36.716C17.1362 37.124 17.1842 37.524 17.2802 37.916C17.3842 38.308 17.5402 38.66 17.7482 38.972C17.9562 39.276 18.2242 39.52 18.5522 39.704C18.8882 39.888 19.2842 39.98 19.7402 39.98C20.1962 39.98 20.5882 39.888 20.9162 39.704C21.2522 39.52 21.5242 39.276 21.7322 38.972C21.9402 38.66 22.0922 38.308 22.1882 37.916C22.2922 37.524 22.3442 37.124 22.3442 36.716C22.3442 36.308 22.2922 35.908 22.1882 35.516C22.0922 35.124 21.9402 34.776 21.7322 34.472C21.5242 34.16 21.2522 33.912 20.9162 33.728C20.5882 33.544 20.1962 33.452 19.7402 33.452ZM19.7402 32.228C20.3802 32.228 20.9522 32.348 21.4562 32.588C21.9682 32.828 22.4002 33.152 22.7522 33.56C23.1042 33.968 23.3722 34.444 23.5562 34.988C23.7482 35.532 23.8442 36.108 23.8442 36.716C23.8442 37.332 23.7482 37.912 23.5562 38.456C23.3722 39 23.1042 39.476 22.7522 39.884C22.4002 40.292 21.9682 40.616 21.4562 40.856C20.9522 41.088 20.3802 41.204 19.7402 41.204C19.1002 41.204 18.5242 41.088 18.0122 40.856C17.5082 40.616 17.0802 40.292 16.7282 39.884C16.3762 39.476 16.1042 39 15.9122 38.456C15.7282 37.912 15.6362 37.332 15.6362 36.716C15.6362 36.108 15.7282 35.532 15.9122 34.988C16.1042 34.444 16.3762 33.968 16.7282 33.56C17.0802 33.152 17.5082 32.828 18.0122 32.588C18.5242 32.348 19.1002 32.228 19.7402 32.228ZM30.5133 35.156C30.4493 34.908 30.3613 34.68 30.2493 34.472C30.1373 34.264 29.9933 34.084 29.8173 33.932C29.6413 33.78 29.4333 33.664 29.1933 33.584C28.9613 33.496 28.6893 33.452 28.3773 33.452C27.9213 33.452 27.5253 33.544 27.1893 33.728C26.8613 33.912 26.5933 34.16 26.3853 34.472C26.1773 34.776 26.0213 35.124 25.9173 35.516C25.8213 35.908 25.7733 36.308 25.7733 36.716C25.7733 37.124 25.8213 37.524 25.9173 37.916C26.0213 38.308 26.1773 38.66 26.3853 38.972C26.5933 39.276 26.8613 39.52 27.1893 39.704C27.5253 39.888 27.9213 39.98 28.3773 39.98C28.7133 39.98 29.0093 39.924 29.2653 39.812C29.5213 39.692 29.7413 39.532 29.9253 39.332C30.1093 39.124 30.2533 38.884 30.3573 38.612C30.4613 38.34 30.5293 38.048 30.5613 37.736H32.0253C31.9933 38.248 31.8813 38.716 31.6893 39.14C31.5053 39.564 31.2533 39.932 30.9333 40.244C30.6133 40.548 30.2373 40.784 29.8053 40.952C29.3733 41.12 28.8973 41.204 28.3773 41.204C27.7373 41.204 27.1613 41.088 26.6493 40.856C26.1453 40.616 25.7173 40.292 25.3653 39.884C25.0133 39.476 24.7413 39 24.5493 38.456C24.3653 37.912 24.2733 37.332 24.2733 36.716C24.2733 36.108 24.3653 35.532 24.5493 34.988C24.7413 34.444 25.0133 33.968 25.3653 33.56C25.7173 33.152 26.1453 32.828 26.6493 32.588C27.1613 32.348 27.7373 32.228 28.3773 32.228C28.8573 32.228 29.3093 32.296 29.7333 32.432C30.1573 32.56 30.5293 32.752 30.8493 33.008C31.1773 33.256 31.4413 33.56 31.6413 33.92C31.8413 34.28 31.9653 34.692 32.0133 35.156H30.5133Z" fill="#F8F8F8"/>
<line y1="23.5" x2="39" y2="23.5" stroke="#3A3A3A"/>
</svg>
